<svg width="21" height="19" xmlns="http://www.w3.org/2000/svg">

 <g>
  <title>background</title>
  <rect fill="none" id="canvas_background" height="402" width="582" y="-1" x="-1"/>
 </g>
 <g>
  <title>Layer 1</title>
  <path id="svg_1" fill="black" d="m19.154,9.33822c2.14,-2.13989 2.14,-5.61458 0,-7.7333c-2.14,-2.1399 -5.6148,-2.1399 -7.7548,0l-1.0382,1.05936l-1.03824,-1.03817c-2.13999,-2.16109 -5.61484,-2.16109 -7.73365,-0.02119c-1.03822,1.03817 -1.58911,2.41534 -1.58911,3.87725c0,1.46191 0.57208,2.83907 1.58911,3.87724l8.77189,8.77149l8.793,-8.79268zm-17.79796,-3.85605c0,-1.10173 0.42376,-2.11871 1.20772,-2.88145c0.80515,-0.80511 1.84336,-1.20767 2.88158,-1.20767c1.03822,0 2.07644,0.40256 2.88158,1.20767l2.03408,2.01278l2.034,-2.03397c1.5891,-1.58903 4.1953,-1.58903 5.7632,0c0.7628,0.76274 1.2077,1.77972 1.2077,2.88145c0,1.10173 -0.4237,2.11871 -1.2077,2.88145l-7.7972,7.81807l-7.79724,-7.79688c-0.76277,-0.78393 -1.20772,-1.80091 -1.20772,-2.88145z"/>
  <path d="m10.442857,9.323216c0,-0.114285 -0.006949,-0.2314 0.228572,-0.799999c0.333077,-0.80412 0.771724,-1.847991 1.485712,-2.857139c0.660082,-0.932958 1.727257,-2.048031 2.285711,-2.857139c0.468138,-0.678254 0.685714,-1.142856 0.685714,-1.02857c0,0.228571 0.085909,0.588495 -0.114285,1.371427c-0.241896,0.94602 -0.66682,1.838346 -1.02857,2.514282c-0.43477,0.812375 -0.790583,1.18707 -0.914285,1.485713c-0.043736,0.105586 -0.115142,0.128249 -0.228571,0.114285c-0.467682,-0.057574 -1.010024,-0.210025 -1.371428,-0.571428c-0.361403,-0.361403 -0.228571,-0.914285 -0.228571,-1.599998c0,-0.457142 0.090268,-0.923249 0.228571,-1.257141c0.097795,-0.236098 0.228572,-0.457142 0.457143,-0.457142c0.114285,0 0.114285,0.228571 0.114285,0.571428c0,0.457142 0.024017,0.808963 -0.114285,1.142856c-0.097795,0.236097 -0.122387,0.456855 -0.114285,0.342857c0.057287,-0.806088 0.428356,-1.322069 1.142856,-1.599998c0.775414,-0.301623 1.290614,-0.309383 1.371427,-0.228571c0.080812,0.080812 0.053444,0.251305 -0.114285,0.571428c-0.265203,0.506159 -0.748474,0.794876 -1.142856,0.914285c-0.109382,0.033118 -0.114285,-0.114285 -0.114285,-0.342857c0,-0.457142 0.241386,-1.247804 0.571427,-1.714283c0.237996,-0.336383 0.307821,-0.747564 0.457143,-0.685714c0.105586,0.043735 0.088228,0.260239 -0.114285,0.685714c-0.245584,0.515964 -0.571427,0.914285 -1.02857,1.371427c-0.228572,0.228571 -0.342857,0.228571 -0.342857,0.114285c0,-0.114285 0.085302,-0.475564 0.457143,-1.02857c0.318851,-0.474198 0.571427,-0.571428 0.457142,-0.571428c-0.114285,0 -0.483886,0.170622 -1.02857,0.457142c-0.364684,0.191835 -0.457142,0.228571 -0.457142,0.114285c0,-0.114285 0.228571,-0.342857 0.685713,-0.571428c0.457143,-0.228571 0.597686,-0.225514 0.571428,-0.114285c-0.058713,0.248714 -0.228571,0.457142 -0.457142,0.685713c-0.228572,0.228571 -0.422107,0.518993 -0.571428,0.457142c-0.105586,-0.043735 0.081614,-0.367048 0.342856,-0.685714c0.102468,-0.124991 0.457143,-0.228571 0.457143,-0.342857c0,-0.114285 -0.262045,0.080813 -0.342857,0c-0.080812,-0.080812 -0.166774,-0.454962 0.342857,-0.799999c0.189272,-0.128144 0.228571,-0.228571 0.457142,-0.228571c0.114285,0 0.342856,0 0.571428,0c0.114285,0 0.228571,0 0.342856,0c0.114285,0 0.379847,-0.054838 0.571427,0.114286c0.308914,0.272704 0.342857,0.799999 0.342857,1.257141c0,0.799999 -0.571428,2.05714 0,2.05714c0.114285,0 0.019196,-0.790895 0.228571,-1.257141c0.252121,-0.561435 0.799999,-1.371427 0.571428,-1.371427c-0.114285,0 0,0.228571 0,0.457142c0,0.342857 0.103098,0.551363 -0.114286,0.685714c-0.097218,0.060083 -0.228571,-0.342857 -0.228571,-0.799999c0,-0.457142 -0.035036,-0.86185 0.114285,-0.799999c0.105586,0.043735 0.169858,0.094142 0.228572,0.342857c0.052515,0.222457 0,0.571428 0,0.914284c0,0.114285 -0.147759,0.195097 -0.228572,0.114285c-0.161624,-0.161624 0,-0.685713 0,-1.257141c0,-0.457142 0,-0.685713 0,-0.571428c0,0.114285 0.043736,0.237271 0,0.342857c-0.061851,0.149321 -0.228571,0.228571 -0.342856,0.228571c-0.114285,0 -0.195098,-0.147759 -0.114285,-0.228571c0.080812,-0.080812 0.342856,0 0.457142,0c0.228572,0 0.476924,-0.01683 0.571427,0.114286c0.149424,0.207314 0.114286,0.457142 0.114286,0.571428c0,0.114285 -0.009172,0.307344 -0.342857,0.228571c-0.248713,-0.058713 -0.342856,-0.342857 -0.342856,-0.685714c0,-0.228571 0,-0.342857 0,-0.457142c0,-0.114285 0.114285,-0.114285 0.342856,-0.114285c0.342857,0 0.571428,0 0.571428,0.114285c0,0.228571 0,0.571428 0,0.914285c0,0.228571 -0.114286,0.571428 0,0.571428c0.114286,0 0,-0.342857 0,-0.571428c0,-0.228571 0,-0.457142 0.114286,-0.457142c0.114285,0 0.262045,-0.080811 0.342855,0c0.080812,0.080812 0.223448,0.405617 0.342857,0.799999c0.099354,0.328145 0,0.799999 0,1.02857c0,0.114286 0,0 0,-0.571428c0,-0.571428 0,-1.02857 0.114285,-1.02857c0.114286,0 0.114286,0.114286 0.114286,0.342857c0,0.228571 0,0.457142 0,0.914285c0,0.228571 0.07925,0.747563 0.228571,0.685713c0.105587,-0.043735 0,-0.228571 0,-0.685713c0,-0.457142 0.07925,-0.747564 0.228571,-0.685714c0.211172,0.08747 0.191957,0.460093 0.228571,0.685714c0.05789,0.356736 0.228571,0.685713 0.228571,1.142856c0,0.228571 0,0.342856 0,0.228571c0,-0.114285 0,-0.571428 0,-1.02857c0,-0.114285 -0.011261,0.000556 0,0.114286c0.057423,0.579908 0.170998,1.018031 0.228573,1.485712c0.041891,0.340288 0,0.457142 0,0.342857c0,-0.114285 0,-0.228571 0,-0.571428c0,-0.114285 0,0 0,0.228571c0,0.457142 -0.140345,0.945952 -0.342857,1.371427c-0.245583,0.515964 -0.519903,0.794876 -0.914286,0.914285c-0.218763,0.066236 -0.342855,0 -0.342855,-0.114286c0,-0.342856 0.112185,-0.881371 0.228571,-1.485713c0.064837,-0.33667 0,-0.228571 0,0.114286c0,0.457142 -0.247766,0.90518 -0.457142,1.371427c-0.252121,0.561435 -0.478401,0.879147 -0.685715,1.028571c-0.131115,0.094503 -0.114285,0 -0.114285,-0.685714c0,-0.914285 0.282907,-1.58422 0.457142,-2.285711c0.167574,-0.674673 0.228571,-1.142856 0.228571,-1.02857c0,0.114285 0.022154,0.803478 -0.114285,1.599998c-0.196774,1.148758 -0.57143,2.05714 -0.228573,2.05714c0.114285,0 0.064993,-0.660884 0.342857,-1.485712c0.300867,-0.893107 0.457142,-1.485713 0.457142,-1.371427c0,0.114285 0,0.457142 0,0.799999c0,0.342856 -0.080812,0.833472 0,0.914284c0.080812,0.080813 0.127645,-0.339159 0.342857,-1.142856c0.121885,-0.455175 0.228571,-0.914284 0.228571,-1.02857c0,-0.114285 -0.153851,-0.033662 -0.342857,0.228571c-0.149422,0.207313 -0.619297,0.600752 -0.799997,1.142856c-0.03614,0.108421 0,0 0,-0.457142c0,-0.685713 -0.13443,-1.772996 0.114285,-1.714283c0.111229,0.026257 -0.135809,0.564989 -0.228571,0.914285c-0.149572,0.563222 -0.342857,1.02857 -0.342857,1.257141c0,0.114285 0,-0.114285 0,-0.685713c0,-0.685714 0.228571,-1.599998 0,-1.599998c-0.114286,0 0,0.571428 -0.228571,1.371427c-0.228571,0.799999 -0.513537,1.471833 -0.571427,1.828569c-0.018307,0.11281 -0.028405,-0.000884 0,-0.457142c0.057254,-0.91962 0.570313,-1.918884 0.685714,-2.742854c0.031704,-0.226362 0.228571,-0.228571 0.228571,0.114285c0,0.914285 -0.114286,1.828569 -0.342857,2.742854c-0.114285,0.457142 -0.228571,0.799999 -0.228571,0.685713c0,-0.685713 0.060998,-1.611039 0.228571,-2.285711c0.087116,-0.350746 0.114286,-0.457142 0.114286,-0.342857c0,0.571428 0.097748,1.491706 0,2.285712c-0.057575,0.467681 -0.213409,0.45483 -0.342857,-0.342857c-0.204674,-1.261252 -0.342856,-2.399997 -0.342856,-3.085711c0,-0.114285 -0.176159,0.443864 -0.342856,1.371427c-0.183055,1.018581 -0.457143,2.285711 -0.457143,3.314281c0,0.799999 0,0.914285 0,0.799999c0,-0.228571 0.196456,-0.721166 0.571428,-1.02857c0.318665,-0.261243 0.759713,-0.568286 1.25714,-0.685713c0.444914,-0.105031 0.604902,-0.033473 0.685715,-0.114285c0.080811,-0.080812 0.228571,0 0.228571,0.114285c0,0.342857 0,0.799999 -0.228571,1.485713c-0.228571,0.685714 -0.732676,1.450556 -1.257141,1.828569c-0.207314,0.149424 -0.342857,0.228571 -0.342857,0.114285c0,-0.114285 -0.054919,-0.46157 0,-0.799999c0.05789,-0.356736 0.293656,-0.700914 0.457142,-1.142856c0.088663,-0.239676 0.14776,-0.537953 0.228571,-0.457142c0.080812,0.080812 -0.253738,0.319414 -0.571427,0.685713c-0.3744,0.431687 -0.636696,0.991938 -1.142856,1.257141c-0.320123,0.167729 -0.35682,0.227715 -0.342856,0.114285c0.057574,-0.467681 0.557931,-1.151174 0.914285,-1.714283c0.22035,-0.348197 0.246878,-0.227096 0.228571,-0.114285c-0.115781,0.713471 -0.503042,1.528877 -1.02857,2.285711c-0.509101,0.733176 -1.409636,1.496736 -2.285711,1.942855c-0.322051,0.163997 -0.401618,-0.018856 -0.228571,-0.457143c0.432108,-1.094426 1.035455,-1.937176 1.599998,-2.628568c0.462833,-0.566829 0.704021,-0.684238 0.685714,-0.571428c-0.05789,0.356737 -0.270722,1.058971 -0.685714,1.942855c-0.391592,0.834046 -1.472057,1.59518 -1.714283,2.285711c-0.037829,0.107843 -0.021612,-0.002062 0,-0.114285c0.116385,-0.604342 0.655518,-1.512616 1.371427,-2.285711c0.549077,-0.592937 0.817459,-0.795277 0.685714,-0.342856c-0.202087,0.693979 -0.584272,1.57144 -1.371428,2.399997c-0.614787,0.647122 -1.152848,1.00502 -1.714283,1.257141c-0.233123,0.104688 -0.262045,0.309383 -0.342857,0.228571c-0.080812,-0.080812 0,-0.342856 0.228572,-0.685714c0.228571,-0.342856 0.228571,-0.457142 0.228571,-0.228571c0,0.457143 -0.056711,1.132317 -0.114285,1.599998c-0.055855,0.453716 -0.033473,0.719187 -0.114285,0.799999c-0.080812,0.080812 -0.114285,-0.114286 -0.114285,-0.228571c0,-0.228571 -0.044497,-0.475346 0.114285,-0.799999c0.18104,-0.370163 0.342856,-0.799999 0.342856,-1.02857c0,-0.114286 0,0 0,0.114285c0,0.342856 -0.033473,0.376329 -0.114285,0.457142c-0.080812,0.080812 -0.037705,-0.001557 0,-0.457142c0.057338,-0.692803 0.395191,-1.401259 0.914285,-2.399997c0.307326,-0.591296 0.779934,-0.925471 0.914285,-1.142857c0.060083,-0.097217 0,0 0,0.114286c0,0.114285 -0.13991,0.331751 -0.228572,0.571427c-0.163486,0.441943 -0.219146,0.692187 -0.457142,1.02857c-0.330041,0.466478 -0.850687,0.843499 -1.02857,1.485712c-0.030507,0.110139 -0.131288,-0.015286 0,-0.571427c0.352281,-1.492285 1.340712,-2.467088 1.828569,-3.428567c0.278482,-0.548838 0.369114,-0.796942 0.342856,-0.685714c-0.058713,0.248713 -0.342856,1.142856 -0.914285,2.285711c-0.571427,1.142856 -1.18707,2.295128 -1.485712,2.171426c-0.105586,-0.043736 -0.008151,-0.231865 0.457142,-1.371427c0.561618,-1.375473 1.227412,-2.705536 1.828569,-3.657138c0.562744,-0.890797 0.922386,-1.142569 0.914285,-1.02857c-0.057287,0.806087 -0.488848,2.044356 -1.02857,3.428567c-0.485946,1.24629 -0.914285,1.714283 -0.799999,1.714283c0.228571,0 -0.015505,-1.275778 0.228571,-2.514282c0.30056,-1.525118 0.986624,-2.765483 1.371427,-3.428567c0.206825,-0.356397 0.235673,-0.456922 0.228572,-0.342857c-0.057254,0.91962 -0.488523,2.332573 -1.485713,3.999995c-0.634486,1.060936 -1.10782,1.776134 -1.257141,1.714284c-0.105586,-0.043736 -0.04143,-0.22951 0,-1.142856c0.057201,-1.261028 0.379523,-2.505889 0.571428,-3.428567c0.141558,-0.680607 0.200735,-0.791751 0.114285,-0.342857c-0.232772,1.208683 -1.143468,3.047682 -2.171426,4.457137c-0.620879,0.8513 -0.914285,1.142856 -0.914285,0.914285c0,-0.914285 0.17249,-2.53138 0.685714,-4.11428c0.412572,-1.272466 0.571427,-1.828569 0.571427,-1.714284c0,0.457142 0.033306,1.376209 -0.114285,2.285711c-0.18669,1.150439 -0.228571,1.942855 -0.228571,2.399997c0,0.228571 0.196839,-0.1349 0.799999,-1.02857c0.869606,-1.28845 1.820086,-2.290619 2.285711,-3.08571c0.33676,-0.575042 0.342856,-0.799999 0.342856,-0.685713c0,0.342856 -0.114285,1.02857 -0.342856,1.828569c-0.228571,0.799998 -0.39843,1.236999 -0.457143,1.485712c-0.026258,0.111228 -0.057055,-0.452396 -0.114285,-1.485712c-0.06952,-1.255218 0.457143,-2.742854 0,-2.742854c-0.114285,0 -0.132619,0.224375 -0.228571,0.685713c-0.141558,0.680607 -0.171148,1.248662 -0.228571,1.828569c-0.033784,0.341188 0.042005,0.258847 0.114285,0.114285c0.361401,-0.722806 0.342856,-1.599998 0.342856,-2.171425c0,-0.228571 0.054901,0.122837 -0.114285,1.02857c-0.173047,0.926399 -0.214692,2.229316 -0.571428,2.171425c-0.225619,-0.036613 0.253368,-0.953043 0.685714,-1.828568c0.47738,-0.966724 0.551286,-1.544426 0.799999,-1.485713c0.111228,0.026258 -0.111144,0.416856 -0.228571,0.914284c-0.10503,0.444913 -0.147759,0.880812 -0.228572,0.799999c-0.080812,-0.080812 -0.064814,-0.573728 0,-1.485713c0.057287,-0.806088 0.164168,-1.025841 0.114286,-0.571428c-0.114972,1.047369 -1.039124,3.080885 -1.714284,4.571423c-0.464425,1.025302 -0.914285,1.599998 -0.914285,1.485713c0,-0.228572 0,-0.571428 0,-1.02857c0,-0.799999 0.00656,-1.732048 0.228571,-2.742854c0.077529,-0.352988 0.114285,-0.228571 0.114285,0.571428c0,1.02857 -0.057032,1.937519 -0.114285,2.857139c-0.042608,0.684389 -0.457142,1.371427 -0.228571,1.371427c0.114285,0 0,-0.342856 0,-1.028569c0,-0.685714 0.009426,-1.256753 0,-1.142857c-0.057338,0.692803 -0.342856,1.599998 -0.342856,2.514283c0,0.457142 0,0.571427 0,0.685713c0,0.228572 -0.114285,0.571428 0,0.571428c0.114285,0 0,-0.228571 0,-0.342856c0,-0.114286 -0.008699,-0.184836 -0.114285,-0.228572c-0.149322,-0.061851 -0.162155,-0.390726 -0.342857,-0.571427c-0.180701,-0.180701 -0.422005,-0.364115 -0.571427,-0.571428c-0.094503,-0.131116 -0.228571,-0.228571 -0.342856,-0.228571c-0.114286,0 -0.147405,0.119189 -0.114286,0.228571c0.11941,0.394382 0.613868,0.771056 0.914285,1.257141c0.268703,0.434769 0.262045,0.604901 0.342857,0.685714c0.080812,0.080812 0.228571,0.228571 0.342856,0.342856c0.114285,0.114286 0.114285,0.228572 0.114285,0.114286c0,-0.114286 0,-0.342857 -0.228571,-0.799999c-0.228571,-0.457143 -0.424471,-0.938476 -0.685714,-1.257141c-0.307404,-0.374973 -0.653042,-0.82419 -0.914285,-1.142856c-0.204936,-0.249982 -0.390726,-0.619298 -0.571427,-0.799999c-0.180702,-0.180701 -0.299121,-0.351556 -0.342857,-0.457143c-0.061851,-0.149322 -0.184836,-0.23727 -0.228571,-0.342856c-0.061851,-0.149322 -0.228571,-0.228571 -0.114286,-0.228571c0.114286,0 0.442493,0.238803 0.685714,0.571427c0.431938,0.590711 0.657749,1.043656 0.914285,1.485713c0.206825,0.356397 0.515771,0.639313 0.685713,0.914285c0.190001,0.307427 0.114286,0.571427 0.228572,0.571427c0.114285,0 -0.088072,-0.143926 -0.342857,-0.342856c-0.525254,-0.410107 -1.043656,-0.65775 -1.485712,-0.914285c-0.356397,-0.206825 -0.53629,-0.4784 -0.685714,-0.685714c-0.28351,-0.393349 -0.610992,-0.42348 -0.799999,-0.685713c-0.149423,-0.207313 -0.228571,-0.342857 -0.342857,-0.457143c-0.114285,-0.114285 -0.228571,-0.228571 -0.228571,-0.342856c0,-0.114285 -0.16672,-0.193535 -0.228571,-0.342856c-0.087471,-0.211172 -0.147759,-0.37633 -0.228571,-0.457143c-0.161624,-0.161624 0.080812,-0.376329 0,-0.457142c-0.080812,-0.080812 -0.228571,0 -0.228571,-0.114285c0,-0.114285 -0.114286,-0.114285 -0.114286,-0.228571c0,-0.114285 -0.147759,-0.033473 -0.228571,-0.114285c-0.080813,-0.080812 0.047338,-0.181233 -0.114285,-0.342857c-0.080812,-0.080812 -0.228571,-0.114285 -0.342857,-0.228571c-0.114285,-0.114285 -0.23727,-0.184835 -0.342856,-0.228571c-0.149321,-0.061851 -0.147759,-0.147759 -0.228571,-0.228571c-0.080812,-0.080812 0,-0.228571 -0.114286,-0.342856c-0.114286,-0.114286 -0.262045,-0.262045 -0.342857,-0.342857c-0.080812,-0.080812 -0.147759,-0.195097 -0.228571,-0.114285c-0.080812,0.080812 -0.052515,0.234685 0,0.457142c0.058713,0.248714 0.228571,0.457142 0.342857,0.571428c0.114286,0.114285 0.147759,0.147758 0.228571,0.228571c0.080812,0.080812 0.114286,0.114285 0,0.114285c-0.114285,0 -0.114285,0.114285 -0.114285,0.228571c0,0.114285 0.125472,0.208506 0.342857,0.342857c0.097217,0.060083 0.114286,0.228571 0.228571,0.228571c0.114285,0 -0.181232,-0.181232 -0.342857,-0.342856c-0.080813,-0.080812 0,-0.228572 -0.114286,-0.342857c-0.114285,-0.114285 -0.299121,-0.351556 -0.342857,-0.457142c-0.061851,-0.149322 -0.228571,-0.228571 -0.228571,-0.342857c0,-0.114285 -0.228571,-0.114285 -0.228571,-0.228571c0,-0.114286 -0.033473,-0.147759 -0.114286,-0.228571c-0.080812,-0.080812 -0.16672,-0.193535 -0.228571,-0.342856c-0.043735,-0.105587 -0.114285,-0.114286 -0.114285,-0.228571c0,-0.114285 -0.114286,-0.114285 -0.114286,-0.228571c0,-0.114286 0,-0.228571 0,-0.342857c0,-0.114285 0,-0.228571 0,-0.342857c0,-0.114285 0,-0.228571 0,-0.342856c0,-0.114285 0,-0.228571 0,-0.342857c0,-0.114285 -0.080812,-0.262044 0,-0.342856c0.080812,-0.080812 0.16672,-0.07925 0.228571,-0.228571c0.08747,-0.211172 -0.035036,-0.395291 0.114285,-0.457142c0.105586,-0.043736 0.114286,-0.114285 0.114286,-0.228571c0,-0.114285 0.033473,-0.147759 0.114286,-0.228571c0.080812,-0.080812 0.07055,-0.122985 0.114285,-0.228571c0.061851,-0.149321 0.147759,-0.262045 0.228571,-0.342857c0.080812,-0.080812 0.193535,-0.16672 0.342857,-0.228571c0.105586,-0.043735 0.228571,-0.114285 0.342857,-0.114285c0.114286,0 0.114286,-0.114285 0.228571,-0.114285c0.114285,0 0.147759,-0.033473 0.228571,-0.114286c0.080812,-0.080812 0.193536,-0.052435 0.342857,-0.114286c0.105586,-0.043735 0.114285,-0.114285 0.228571,-0.114285c0.114285,0 0.228571,0 0.342857,0c0.114285,0 0.228571,0 0.342857,0c0.114285,0 0.342856,0.114285 0.342856,0c0,-0.114285 -0.228571,0 -0.342856,0c-0.114286,0 -0.228571,0 -0.342857,0c-0.114285,0 -0.228571,0 -0.342857,0c-0.228571,0 -0.228571,-0.114285 -0.228571,-0.228571c0,-0.114285 0.008699,-0.184836 0.114285,-0.228571c0.149321,-0.061851 0.147759,-0.147759 0.228571,-0.228571c0.080812,-0.080812 0.228571,0 0.342857,0c0.114285,0 0.114285,0.114286 0.228571,0.114286c0.114285,0 0.262044,-0.080812 0.342856,0c0.080812,0.080812 0.07925,0.16672 0.228571,0.228571c0.105587,0.043736 0.237271,-0.043735 0.342857,0c0.149321,0.061851 0.228571,0.228571 0.342857,0.228571c0.114285,0 0.262044,0.147759 0.342856,0.228571c0.080812,0.080812 0.21174,0.134068 0.342857,0.228571c0.207314,0.149423 0.342857,0.228571 0.457142,0.342857c0.114285,0.114285 0.228571,0.228571 0.342856,0.342857c0.114285,0.114285 0.079147,0.249829 0.228571,0.457142c0.094503,0.131117 0.228572,0.228571 0.342857,0.342856c0.114285,0.114286 0.033473,0.262045 0.114285,0.342857c0.080812,0.080812 0.228571,0 0.228571,0.114285c0,0.114285 0.147758,0.147759 0.228571,0.228571c0.080812,0.080812 0.066947,0.066946 0.228572,0.228571c0.080812,0.080812 0.24564,0.168488 0.342856,0.228571c0.217384,0.134351 0.114285,0.457142 0.228571,0.457142c0.114285,0 0,-0.228571 -0.114285,-0.571428c-0.114285,-0.342856 -0.342856,-0.571428 -0.342856,-0.685713c0,-0.114285 -0.114285,-0.342857 -0.228572,-0.342857c-0.114286,0 0.054203,0.131354 0.114286,0.228571c0.134351,0.217384 0.342856,0.114285 0.342856,0.342856c0,0.114286 -0.011187,0.020065 -0.228571,-0.114285c-0.486086,-0.300417 -0.779934,-0.468329 -0.914285,-0.685713c-0.18025,-0.291651 0.114285,-0.571428 0,-0.571428c-0.114285,0 -0.035137,0.249829 0.114285,0.457142c0.189007,0.262233 0.364602,0.443602 0.571427,0.799999c0.256536,0.442056 0.424471,0.709905 0.685714,1.02857c0.204936,0.249981 0.295518,0.638375 0.457142,0.799999c0.080812,0.080813 0.228572,0.114286 0.228572,0.228571c0,0.114285 0,0.228571 0,0.457142c0,0.228571 0,0.457142 0,0.571428c0,0.114285 -0.131354,0.402941 -0.228572,0.342857c-0.217384,-0.134351 -0.359838,-0.908095 -0.685713,-1.828569c-0.241223,-0.681365 -0.457143,-1.02857 -0.571428,-1.02857c-0.114285,0 -0.285282,0.103747 -0.342856,0.571428c-0.083782,0.680576 -0.171233,1.478622 -0.228571,2.171426c-0.065985,0.797273 -0.457142,1.828569 0,1.828569c0.114285,0 -0.120309,-0.227107 -0.228571,-0.685713c-0.242082,-1.025475 -0.514006,-1.934374 -0.571428,-2.514283c-0.045046,-0.454917 0,-0.685714 0,-0.571428c0,0.342856 -0.045544,1.143991 0,2.05714c0.057214,1.14713 0.170681,1.700403 0.228571,2.05714c0.018307,0.11281 0.056948,-0.107197 0.114285,-0.799999c0.084837,-1.025065 0,-2.171426 0,-2.971425c0,-0.457142 -0.114285,-0.914284 -0.114285,-0.799999c0,0.342856 -0.05056,1.487112 0,2.399997c0.05723,1.033317 -0.114285,1.942854 0.114285,1.942854c0.114285,0 0,-0.571427 0,-1.485712c0,-0.457142 0,-0.342856 0,0.228571c0,1.02857 0.171149,1.591517 0.228572,2.171426c0.056308,0.568647 -0.14659,0.476604 -0.342857,0.114285c-0.414562,-0.765302 -0.820508,-1.996102 -1.371427,-2.857139c-0.394398,-0.616409 -0.571428,-0.571428 -0.571428,-0.457142c0,0.114285 0.342857,0.914284 0.685713,1.828569c0.342857,0.914285 0.332318,1.886144 0.799999,1.828569c0.11343,-0.013964 0,-0.228572 -0.228571,-0.685714c-0.342857,-0.685714 -0.64731,-1.652423 -1.02857,-2.514282c-0.166701,-0.376837 -0.228571,-0.228571 -0.228571,-0.114286c0,0.342857 0.05843,0.803423 0.114285,1.257142c0.057574,0.467681 0.140543,0.56837 0.114285,0.457142c-0.058713,-0.248713 -0.519886,-0.526447 -0.914284,-1.142856c-0.275459,-0.430518 -0.566304,-0.748474 -0.685714,-1.142856c-0.033118,-0.109382 0,0 0,0.342857c0,0.457142 -0.242451,1.315032 0.114286,1.257142c0.112811,-0.018307 -0.106686,-0.230539 -0.228571,-0.685714c-0.215211,-0.803696 -0.433592,-1.724276 -0.685713,-2.285711c-0.104688,-0.233123 -0.228571,-0.342857 -0.228571,-0.228571c0,0.114285 0,0.457142 0,0.685713c0,0.228571 -0.056395,0.128165 -0.114286,-0.228571c-0.128146,-0.789669 -0.080812,-1.4049 0,-1.485713c0.080812,-0.080812 0.398429,0.322714 0.457142,0.571428c0.10503,0.444913 0,0.685714 0,0.914285c0,0.228571 -0.147759,0.537954 -0.228571,0.457142c-0.080812,-0.080812 -0.055855,-0.346282 0,-0.799999c0.057574,-0.46768 0.239758,-0.894219 0.457142,-1.02857c0.194434,-0.120167 0.478667,-0.006439 0.571428,0.342856c0.149572,0.563222 0.114285,1.257141 0.114285,1.828569c0,0.571428 -0.122674,0.579242 -0.228571,0.457142c-0.3744,-0.431687 -0.457142,-1.142856 -0.457142,-1.942854c0,-0.457142 -0.103099,-0.779934 0.114285,-0.914285c0.097217,-0.060083 0.396058,0.324352 0.571428,0.914285c0.166051,0.558586 0.114285,1.02857 0.114285,1.485713c0,0.114285 -0.218032,0.285282 -0.685713,0.342856c-0.453717,0.055855 -0.914284,-0.114285 -0.914284,-0.342856c0,-0.457142 0,-0.914285 0,-1.485713c0,-0.571428 0.056395,-1.014691 0.114285,-1.371427c0.018306,-0.11281 0.114286,-0.228571 0.228571,-0.342856c0.114285,-0.114286 0.228571,-0.114286 0.228571,0c0,0.228571 0,0.571428 0,1.02857c0,0.342856 -0.114285,0.685713 0,0.685713c0.114285,0 -0.091533,-0.464521 0,-1.02857c0.05789,-0.356736 0.29384,-0.763366 0.799999,-1.02857c0.320123,-0.167729 0.571428,-0.114285 0.685713,-0.114285c0.114285,0 0.139598,0.093641 0.228571,0.228571c0.338798,0.5138 0.399889,1.366092 0.457142,2.285711c0.028406,0.456259 0,0.571428 -0.114285,0.571428c-0.114285,0 -0.399804,-0.450052 -0.457142,-1.142856c-0.056558,-0.683377 -0.078772,-1.152027 0,-1.485712c0.058713,-0.248714 0.437077,-0.445955 0.571428,-0.228571c0.180251,0.291651 0.056863,0.791519 0.114285,1.371427c0.045046,0.454917 0,0.914284 0,1.257141c0,0.457142 -0.033473,0.880811 -0.114285,0.799999c-0.080812,-0.080812 -0.084837,-0.460647 0,-1.485713c0.057338,-0.692803 0.147759,-1.062044 0.228571,-1.142856c0.080812,-0.080812 0.249829,-0.035137 0.457142,0.114285c0.393349,0.28351 0.742109,0.786119 0.799999,1.142856c0.073226,0.45124 0,0.799999 0,1.02857c0,0.114285 0.056307,-0.002781 0,-0.571428c-0.057422,-0.579908 -0.228571,-1.371427 -0.228571,-1.942855c0,-0.457142 -0.114286,-0.342856 -0.114286,-0.228571c0,0.114285 -0.036613,0.345809 0,0.571428c0.05789,0.356736 0.114286,0.571428 0.114286,0.685713c0,0.114285 -0.008699,0.386592 -0.114286,0.342857c-0.149321,-0.061851 -0.529482,-0.594057 -0.914284,-1.257141c-0.206825,-0.356397 -0.228571,-0.571428 -0.228571,-0.685714c0,-0.114285 0,-0.228571 0.114285,-0.342857c0.114286,-0.114286 0.342857,-0.114285 0.457142,-0.114285c0.114285,0 0.342857,0 0.457142,0c0.114285,0 0.307821,0.16672 0.457142,0.228571c0.211172,0.087471 0.351556,0.184836 0.457142,0.228571c0.149322,0.061851 0.114285,0.228571 0.228572,0.342857c0.114285,0.114285 0.193535,0.281006 0.342856,0.342857c0.105586,0.043735 0.228571,0 0.228571,0.114285c0,0.114285 0.248353,0.326026 0.342856,0.457142c0.149424,0.207313 0.239758,0.551363 0.457143,0.685713c0.194434,0.120167 0.114285,0.228571 0.228571,0.228571c0.114285,0 0,-0.228571 -0.228571,-0.685713c-0.228571,-0.457142 -0.480778,-0.892874 -0.685714,-1.142856c-0.261243,-0.318666 -0.364602,-0.672173 -0.571427,-1.02857c-0.128267,-0.221028 -0.228572,-0.342857 -0.342857,-0.457142c-0.114285,-0.114285 -0.114285,0 -0.114285,0.114286c0,0.114286 -0.066236,0.352664 0,0.571428c0.119409,0.394382 0.422006,0.592686 0.571428,0.799999c0.094503,0.131116 0.033473,0.262044 0.114285,0.342857c0.080812,0.080812 0.228571,0.114285 0.228571,0.228571c0,0.114285 0,0.342857 0.114285,0.342857l0.114285,0l0,0.114285" id="svg_4" fill-opacity="null" stroke-opacity="null" stroke-width="1.5" stroke="#000" fill="none"/>
  <path d="m6.328577,11.266071c0,0 -0.173632,-0.063794 -0.457142,-0.457143c-0.149423,-0.207313 -0.262044,-0.376329 -0.342856,-0.457142c-0.080812,-0.080812 -0.147759,-0.033473 -0.228571,-0.114285c-0.080812,-0.080812 -0.249829,-0.079148 -0.457142,-0.228572c-0.131116,-0.094503 -0.262045,-0.262044 -0.342857,-0.342856c-0.080812,-0.080812 -0.114285,-0.228571 -0.114285,-0.342856c0,-0.114285 0.043735,-0.23727 0,-0.342856c-0.061851,-0.149322 -0.114285,-0.342857 -0.114285,-0.457143c0,-0.114285 0.114285,-0.342856 0,-0.342856c-0.114285,0 0,0.342856 0,0.685713c0,0.457143 0,0.799999 0,1.257142c0,0.342856 0,0.457142 0.114285,0.457142c0.114285,0 0.134068,-0.097455 0.228571,-0.228571c0.149423,-0.207313 0.114285,-0.457143 0.114285,-0.799999c0,-0.114285 0,-0.342856 0,-0.228571c0,0.228571 0,0.571427 0,0.799999c0,0.114285 0,0.228571 0,0.114285c0,-0.342857 -0.052902,-1.046145 -0.342856,-1.942855c-0.189354,-0.585593 -0.342857,-1.257141 -0.457142,-1.828569c-0.114285,-0.571428 -0.519886,-1.212161 -0.914284,-1.828569c-0.27546,-0.430518 -0.147759,-0.719187 -0.228571,-0.799999c-0.080812,-0.080812 -0.114285,0.114285 -0.228571,0.114285c-0.114286,0 -0.228571,0 -0.342857,0c-0.228571,0 -0.37633,-0.080812 -0.457142,0c-0.080812,0.080812 -0.147759,0.195097 -0.228571,0.114285c-0.080812,-0.080812 0,-0.228571 0.114285,-0.342857c0.228571,-0.228571 0.264,-0.267142 0.571428,-0.457142c0.137486,-0.084971 0.228571,-0.228571 0.457142,-0.228571c0.228571,0 0.460199,-0.088028 0.571428,-0.114286c0.248714,-0.058713 0.351556,-0.07055 0.457142,-0.114285c0.149321,-0.061851 0.262044,-0.033473 0.342856,-0.114285c0.080812,-0.080812 0.114286,-0.114286 0,-0.114286c-0.228571,0 -0.457142,0 -0.685713,0c-0.114285,0 -0.114285,-0.228571 -0.114285,-0.342857c0,-0.114286 -0.080812,-0.262045 0,-0.342857c0.080812,-0.080812 0.114285,-0.114285 0.228571,-0.228571c0.114285,-0.114286 0.228571,-0.114286 0.342857,-0.114286c0.228571,0 0.457142,0 0.571428,0c0.114285,0 0.228571,0 0.342856,0c0.114286,0 0.228571,0 0.342857,0c0.114285,0 0.228571,0 0.342857,0c0.228571,0 0.342856,0 0.571428,0c0.114285,0 0.147759,0.033473 0.228571,0.114286c0.080812,0.080812 0.237271,-0.043735 0.342857,0c0.149321,0.061851 0.351556,0.07055 0.457142,0.114286c0.149321,0.061851 0.228571,0.114285 0.342856,0.114285c0.114286,0 0.228571,0.114286 0.342857,0.114286c0.114285,0 0.228571,0 0.342856,0c0.114285,0 0.168488,0.017068 0.228571,0.114285c0.134351,0.217385 0.276442,0.162155 0.457143,0.342857c0.180701,0.180701 0.326026,0.248354 0.457142,0.342857c0.207314,0.149423 0.351557,0.184836 0.457143,0.228571c0.149322,0.061851 0.262044,0.147759 0.342856,0.228571c0.080812,0.080812 0.184835,0.122985 0.228571,0.228571c0.061851,0.149321 0.066947,0.181232 0.228571,0.342857c0.080812,0.080813 0.228572,0 0.228572,0.114285c0,0.114285 0.07055,0.122985 0.114285,0.228571c0.061851,0.149322 0.033473,0.262045 0.114285,0.342857c0.080812,0.080812 0.114285,0.114285 0.114285,0.228571l0,0.114286" id="svg_5" fill-opacity="null" stroke-opacity="null" stroke-width="1.5" stroke="#000" fill="none"/>
 </g>
</svg>