<svg width="19" height="23" viewBox="0 0 19 23" fill="none" xmlns="http://www.w3.org/2000/svg">
<path d="M2.45781 21.1422C2.51876 21.8126 3.06729 22.3002 3.73772 22.3002H14.2614C14.9318 22.3002 15.4804 21.7923 15.5413 21.1422L16.7197 8.79007H1.27948L2.45781 21.1422Z" fill="white"/>
<path d="M16.8869 5.36415L11.8593 4.29549L11.9944 3.65959C12.1423 2.96406 11.7041 2.28938 11.0086 2.14154L8.48486 1.6051C7.78934 1.45726 7.11465 1.89541 6.96681 2.59093L6.83164 3.22684L1.78414 2.15395C1.08862 2.00612 0.413927 2.44426 0.266089 3.13979C0.118251 3.83531 0.556399 4.51 1.25192 4.65784L16.3547 7.86803C17.0502 8.01587 17.7249 7.57772 17.8727 6.8822C18.0206 6.18668 17.5824 5.51199 16.8869 5.36415Z" fill="white"/>
</svg>
